#!OML:ASF H:\ManfredObstacles\Project 1\Capture day 1\Session 1\Male.ASF
:FULLY-SPECIFIED
:DEGREES
622
root -3.4595 16.2307 -3.80735 -160.317 -5.79811 -182.478
lowerback 6.02246 0.0748324 -2.60516
upperback 7.94847 -0.844968 2.01325
thorax 4.94331 -0.958768 3.54097
lowerneck -0.918654 -4.23348 -6.64334
upperneck -2.13968 -5.58385 9.81546
head -0.0105514 -2.8227 4.37807
rclavicle 1.19271e-015 -1.51076e-014
rhumerus -26.2851 -24.5611 -78.7765
rradius 33.5979
rwrist 27.0562
rhand -4.56218 -3.03657
rfingers 7.12502
rthumb 21.214 -31.8957
lclavicle 1.19271e-015 -1.51076e-014
lhumerus -18.129 7.40234 84.4898
lradius 22.6157
lwrist -25.7192
lhand -12.737 6.52091
lfingers 7.12502
lthumb 13.3467 36.0735
rfemur -46.5772 -1.93901 16.7912
rtibia 68.4404
rfoot 158.472 -178.289
rtoes -0.390338
lfemur -33.8833 -6.43938 -25.7747
ltibia 31.0574
lfoot -9.88596 -4.40366
ltoes 10.0415
623
root -3.46375 16.2383 -3.90947 -161.035 -5.73579 -182.634
lowerback 5.81434 0.0162027 -2.76451
upperback 7.6233 -0.855798 1.9396
thorax 4.71653 -0.935995 3.55514
lowerneck -0.704247 -4.25091 -6.68925
upperneck -1.32013 -5.65884 9.80424
head 0.224044 -2.85088 4.37537
rclavicle 6.75868e-015 1.11319e-014
rhumerus -27.7154 -25.1069 -78.0916
rradius 33.6838
rwrist 27.3156
rhand -4.43773 -2.95444
rfingers 7.12502
rthumb 21.3336 -31.8001
lclavicle 6.75868e-015 1.11319e-014
lhumerus -18.9306 6.97581 84.4306
lradius 22.77
lwrist -25.4861
lhand -12.7979 6.57058
lfingers 7.12502
lthumb 13.288 36.127
rfemur -47.5248 -1.88944 16.2892
rtibia 66.5159
rfoot 157.731 -179.084
rtoes -2.36891
lfemur -32.3015 -6.01529 -26.1453
ltibia 30.4133
lfoot -9.92388 -4.82836
ltoes 9.9211
624
root -3.47352 16.251 -4.01346 -161.95 -5.90272 -182.524
lowerback 5.74465 -0.241906 -2.69507
upperback 7.30715 -1.15103 2.00709
thorax 4.44585 -1.05328 3.59378
lowerneck -0.294852 -4.08383 -6.70923
upperneck -0.572886 -5.49355 9.57996
head 0.369904 -2.76594 4.30349
rclavicle 7.95139e-015 -5.96354e-015
rhumerus -29.2364 -25.2433 -77.441
rradius 33.9932
rwrist 27.6753
rhand -4.16963 -2.92122
rfingers 7.12502
rthumb 21.5911 -31.7376
lclavicle 7.95139e-015 -5.96354e-015
lhumerus -19.9204 7.25587 84.2679
lradius 22.9758
lwrist -25.4597
lhand -12.8998 6.50926
lfingers 7.12502
lthumb 13.1898 36.072
rfemur -48.0393 -2.03054 16.0934
rtibia 64.2466
rfoot 157.957 -178.676
rtoes 4.75984
lfemur -30.4706 -5.70212 -26.1812
ltibia 29.6622
lfoot -9.84287 -5.2642
ltoes 10.726
625
root -3.48163 16.2722 -4.12103 -162.746 -6.01447 -182.546
lowerback 5.01806 -0.458319 -2.79519
upperback 7.41698 -1.42874 2.04188
thorax 4.99951 -1.20877 3.6737
lowerneck -0.35367 -3.95203 -6.74599
upperneck -0.0559917 -5.34212 9.39731
head 0.528719 -2.68303 4.24135
rclavicle -2.78299e-014 -3.18055e-015
rhumerus -29.7883 -25.4628 -77.132
rradius 34.0502
rwrist 27.9276
rhand -3.93219 -2.98563
rfingers 7.12502
rthumb 21.8191 -31.7756
lclavicle -2.78299e-014 -3.18055e-015
lhumerus -19.9631 7.64503 84.2333
lradius 23.0409
lwrist -25.4883
lhand -12.8774 6.58635
lfingers 7.12502
lthumb 13.2114 36.1477
rfemur -48.4671 -2.25691 15.7762
rtibia 61.6764
rfoot 157.833 -179.167
rtoes 2.04367
lfemur -28.6658 -5.43725 -26.3419
ltibia 28.783
lfoot -9.63326 -5.59556
ltoes 12.4093
626
root -3.491 16.2999 -4.22927 -163.476 -6.10293 -182.506
lowerback 5.0719 -0.644719 -2.63264
upperback 6.84963 -1.5863 1.99135
thorax 4.37472 -1.22376 3.54045
lowerneck 0.0685303 -3.86728 -6.88461
upperneck 0.964182 -5.32139 9.34604
head 0.783793 -2.67688 4.25153
rclavicle 1.03368e-014 -4.77083e-015
rhumerus -31.5797 -25.5433 -76.3016
rradius 34.1016
rwrist 28.1094
rhand -3.77607 -2.89657
rfingers 7.12502
rthumb 21.969 -31.669
lclavicle 1.03368e-014 -4.77083e-015
lhumerus -20.9797 7.42368 84.1142
lradius 23.1358
lwrist -25.1579
lhand -12.715 6.84564
lfingers 7.12502
lthumb 13.3679 36.3968
rfemur -48.755 -2.50179 15.5378
rtibia 58.8097
rfoot 157.939 -179.379
rtoes -0.492333
lfemur -26.8569 -5.28305 -26.4086
ltibia 27.7653
lfoot -9.58887 -5.7317
ltoes 12.3465
627
root -3.49269 16.328 -4.34113 -164.251 -6.22119 -182.108
lowerback 4.76694 -0.821797 -2.36477
upperback 6.58767 -1.77402 2.10154
thorax 4.28059 -1.28612 3.50259
lowerneck 0.297242 -3.79424 -6.94419
upperneck 1.71125 -5.29264 9.23902
head 0.980478 -2.66743 4.22532
rclavicle 1.74931e-014 1.63003e-014
rhumerus -32.9395 -25.4691 -75.7594
rradius 34.4298
rwrist 28.3
rhand -3.75609 -2.82774
rfingers 7.12502
rthumb 21.9882 -31.598
lclavicle 1.74931e-014 1.63003e-014
lhumerus -21.4097 7.69343 84.0328
lradius 23.0587
lwrist -25.1831
lhand -12.6764 6.86869
lfingers 7.12502
lthumb 13.4051 36.4174
rfemur -48.8194 -2.49838 15.6445
rtibia 55.7004
rfoot 157.904 -179.333
rtoes -1.07652
lfemur -25.0157 -5.04877 -26.0361
ltibia 26.6241
lfoot -9.44816 -5.87724
ltoes 12.5633
628
root -3.49623 16.3461 -4.45771 -165.109 -6.54319 -182.207
lowerback 4.27049 -1.08063 -2.5078
upperback 6.58804 -2.10181 2.09082
thorax 4.59307 -1.45552 3.55862
lowerneck 0.408078 -3.73719 -7.14289
upperneck 2.29253 -5.27311 9.26798
head 1.15547 -2.663 4.27476
rclavicle 2.06736e-014 -1.11319e-014
rhumerus -33.9513 -25.271 -75.4583
rradius 34.898
rwrist 28.2572
rhand -3.69699 -3.01889
rfingers 7.12502
rthumb 22.0449 -31.7824
lclavicle 2.06736e-014 -1.11319e-014
lhumerus -21.4404 8.16215 83.9607
lradius 22.9499
lwrist -25.5481
lhand -12.6964 6.77452
lfingers 7.12502
lthumb 13.3858 36.3245
rfemur -48.4446 -3.03139 15.3341
rtibia 52.3994
rfoot 158.526 -178.754
rtoes -0.690691
lfemur -23.0247 -4.77728 -26.2255
ltibia 25.5706
lfoot -9.32115 -6.3958
ltoes 12.8315
629
root -3.4991 16.3552 -4.57183 -165.738 -6.78618 -182.727
lowerback 3.58719 -1.28629 -2.98846
upperback 6.60465 -2.33982 1.92034
thorax 5.03106 -1.5904 3.62749
lowerneck 0.379838 -3.75686 -7.37091
upperneck 2.87919 -5.35461 9.37448
head 1.37177 -2.70714 4.35376
rclavicle 3.97569e-015 -2.14687e-014
rhumerus -34.5468 -25.4756 -75.1147
rradius 34.7293
rwrist 28.2834
rhand -3.60274 -3.10986
rfingers 7.12502
rthumb 22.1354 -31.8627
lclavicle 3.97569e-015 -2.14687e-014
lhumerus -21.2208 8.2852 83.9632
lradius 22.7843
lwrist -25.8216
lhand -12.7345 6.70936
lfingers 7.12502
lthumb 13.3491 36.2617
rfemur -48.1051 -3.72747 14.6415
rtibia 49.0121
rfoot 159.254 -178.182
rtoes -1.807
lfemur -21.2401 -4.49362 -26.8567
ltibia 24.5262
lfoot -9.11288 -6.92091
ltoes 13.0336
630
root -3.49511 16.3695 -4.6843 -166.533 -7.33776 -182.193
lowerback 2.96584 -1.48483 -2.40179
upperback 6.66571 -2.59444 2.00971
thorax 5.44692 -1.69568 3.36324
lowerneck 0.39043 -3.82592 -7.28347
upperneck 3.36954 -5.48873 9.22533
head 1.53452 -2.77679 4.27776
rclavicle -1.64991e-014 -1.19271e-014
rhumerus -35.0073 -25.8583 -74.8006
rradius 34.3013
rwrist 28.3914
rhand -3.64936 -3.02323
rfingers 7.12502
rthumb 22.0906 -31.7814
lclavicle -1.64991e-014 -1.19271e-014
lhumerus -20.8096 8.28824 83.9802
lradius 22.4841
lwrist -26.0058
lhand -12.7857 6.6519
lfingers 7.12502
lthumb 13.2997 36.2075
rfemur -47.4058 -4.04214 15.0401
rtibia 45.5833
rfoot 159.965 -177.688
rtoes -1.17912
lfemur -19.46 -4.11129 -26.24
ltibia 23.3851
lfoot -8.67392 -7.49626
ltoes 13.0813
